<?xml version="1.0" standalone="no"?>
<!DOCTYPE svg PUBLIC "-//W3C//DTD SVG 20010904//EN"
 "http://www.w3.org/TR/2001/REC-SVG-20010904/DTD/svg10.dtd">
<svg version="1.0" xmlns="http://www.w3.org/2000/svg"
 width="144.000000pt" height="144.000000pt" viewBox="0 0 144.000000 144.000000"
 preserveAspectRatio="xMidYMid meet">
<metadata>
Created by potrace 1.11, written by Peter Selinger 2001-2013
</metadata>
<g transform="translate(0.000000,144.000000) scale(0.100000,-0.100000)"
fill="#000000" stroke="none">
<path d="M1265 1389 c-71 -27 -218 -81 -325 -120 -210 -76 -287 -104 -623
-229 -120 -44 -222 -80 -227 -80 -5 0 -28 -7 -50 -16 l-40 -16 0 -464 0 -464
720 0 720 0 0 720 0 720 -22 -1 c-13 -1 -81 -23 -153 -50z m-407 -501 l3 -28
-105 0 -106 0 0 -70 0 -70 90 0 c89 0 90 0 90 -25 0 -25 -1 -25 -90 -25 l-91
0 3 -82 3 -83 103 0 102 0 0 -27 0 -28 -135 0 -134 0 -3 231 c-2 127 -1 233 1
235 3 3 64 3 135 2 l131 -3 3 -27z"/>
</g>
</svg>
